<svg width="792" height="160" viewBox="0 0 792 160" xmlns="http://www.w3.org/2000/svg">
<rect width="792" height="160" fill="#0d1117"/>
<g transform="translate(40, 20)">
<text x="30.0" y="-8" fill="#e6edf3" font-size="10" text-anchor="middle" font-family="-apple-system, BlinkMacSystemFont, Segoe UI, Helvetica, Arial, sans-serif" font-weight="600">17</text>
<rect x="0" y="0" width="60" height="80" fill="#f78166" rx="2" ry="2"><title>17 reviews - 00 CodeTop</title></rect>
<text x="30.0" y="92" fill="#8b949e" font-size="10" font-family="-apple-system, BlinkMacSystemFont, Segoe UI, Helvetica, Arial, sans-serif" transform="rotate(45, 30.0, 92)">00 CodeTop</text>
<text x="102.0" y="-8" fill="#e6edf3" font-size="10" text-anchor="middle" font-family="-apple-system, BlinkMacSystemFont, Segoe UI, Helvetica, Arial, sans-serif" font-weight="600">17</text>
<rect x="72" y="0" width="60" height="80" fill="#f78166" rx="2" ry="2"><title>17 reviews - 01 Java::JavaCollections</title></rect>
<text x="102.0" y="92" fill="#8b949e" font-size="10" font-family="-apple-system, BlinkMacSystemFont, Segoe UI, Helvetica, Arial, sans-serif" transform="rotate(45, 102.0, 92)">JavaColle..</text>
<text x="174.0" y="25" fill="#e6edf3" font-size="10" text-anchor="middle" font-family="-apple-system, BlinkMacSystemFont, Segoe UI, Helvetica, Arial, sans-serif" font-weight="600">10</text>
<rect x="144" y="33" width="60" height="47" fill="#f78166" rx="2" ry="2"><title>10 reviews - 01 Java::JavaBasic</title></rect>
<text x="174.0" y="92" fill="#8b949e" font-size="10" font-family="-apple-system, BlinkMacSystemFont, Segoe UI, Helvetica, Arial, sans-serif" transform="rotate(45, 174.0, 92)">JavaBasic</text>
<text x="246.0" y="35" fill="#e6edf3" font-size="10" text-anchor="middle" font-family="-apple-system, BlinkMacSystemFont, Segoe UI, Helvetica, Arial, sans-serif" font-weight="600">8</text>
<rect x="216" y="43" width="60" height="37" fill="#f78166" rx="2" ry="2"><title>8 reviews - 01 Java::JavaConcurrency</title></rect>
<text x="246.0" y="92" fill="#8b949e" font-size="10" font-family="-apple-system, BlinkMacSystemFont, Segoe UI, Helvetica, Arial, sans-serif" transform="rotate(45, 246.0, 92)">JavaConcu..</text>
<text x="318.0" y="70" fill="#8b949e" font-size="10" text-anchor="middle" font-family="-apple-system, BlinkMacSystemFont, Segoe UI, Helvetica, Arial, sans-serif">0</text>
<rect x="288" y="77" width="60" height="3" fill="#21262d" rx="1" ry="1"><title>0 reviews - 00 QA</title></rect>
<text x="318.0" y="92" fill="#8b949e" font-size="10" font-family="-apple-system, BlinkMacSystemFont, Segoe UI, Helvetica, Arial, sans-serif" transform="rotate(45, 318.0, 92)">00 QA</text>
<text x="390.0" y="70" fill="#8b949e" font-size="10" text-anchor="middle" font-family="-apple-system, BlinkMacSystemFont, Segoe UI, Helvetica, Arial, sans-serif">0</text>
<rect x="360" y="77" width="60" height="3" fill="#21262d" rx="1" ry="1"><title>0 reviews - 03 Redis</title></rect>
<text x="390.0" y="92" fill="#8b949e" font-size="10" font-family="-apple-system, BlinkMacSystemFont, Segoe UI, Helvetica, Arial, sans-serif" transform="rotate(45, 390.0, 92)">03 Redis</text>
<text x="462.0" y="70" fill="#8b949e" font-size="10" text-anchor="middle" font-family="-apple-system, BlinkMacSystemFont, Segoe UI, Helvetica, Arial, sans-serif">0</text>
<rect x="432" y="77" width="60" height="3" fill="#21262d" rx="1" ry="1"><title>0 reviews - Network</title></rect>
<text x="462.0" y="92" fill="#8b949e" font-size="10" font-family="-apple-system, BlinkMacSystemFont, Segoe UI, Helvetica, Arial, sans-serif" transform="rotate(45, 462.0, 92)">Network</text>
<text x="534.0" y="70" fill="#8b949e" font-size="10" text-anchor="middle" font-family="-apple-system, BlinkMacSystemFont, Segoe UI, Helvetica, Arial, sans-serif">0</text>
<rect x="504" y="77" width="60" height="3" fill="#21262d" rx="1" ry="1"><title>0 reviews - 02 MySQL</title></rect>
<text x="534.0" y="92" fill="#8b949e" font-size="10" font-family="-apple-system, BlinkMacSystemFont, Segoe UI, Helvetica, Arial, sans-serif" transform="rotate(45, 534.0, 92)">02 MySQL</text>
<text x="606.0" y="70" fill="#8b949e" font-size="10" text-anchor="middle" font-family="-apple-system, BlinkMacSystemFont, Segoe UI, Helvetica, Arial, sans-serif">0</text>
<rect x="576" y="77" width="60" height="3" fill="#21262d" rx="1" ry="1"><title>0 reviews - 01 Java::SSM</title></rect>
<text x="606.0" y="92" fill="#8b949e" font-size="10" font-family="-apple-system, BlinkMacSystemFont, Segoe UI, Helvetica, Arial, sans-serif" transform="rotate(45, 606.0, 92)">SSM</text>
<text x="678.0" y="70" fill="#8b949e" font-size="10" text-anchor="middle" font-family="-apple-system, BlinkMacSystemFont, Segoe UI, Helvetica, Arial, sans-serif">0</text>
<rect x="648" y="77" width="60" height="3" fill="#21262d" rx="1" ry="1"><title>0 reviews - 06 Project::QJob</title></rect>
<text x="678.0" y="92" fill="#8b949e" font-size="10" font-family="-apple-system, BlinkMacSystemFont, Segoe UI, Helvetica, Arial, sans-serif" transform="rotate(45, 678.0, 92)">QJob</text>
</g>
</svg>