<svg width="792" height="148" viewBox="0 0 792 148" xmlns="http://www.w3.org/2000/svg">
<rect width="792" height="148" fill="#ffffff"/>
<g transform="translate(40, 20)">
<text x="-30" y="23" fill="#1f2328" font-size="11" font-family="-apple-system, BlinkMacSystemFont, Segoe UI, Helvetica, Arial, sans-serif">Mon</text>
<text x="-30" y="51" fill="#1f2328" font-size="11" font-family="-apple-system, BlinkMacSystemFont, Segoe UI, Helvetica, Arial, sans-serif">Wed</text>
<text x="-30" y="79" fill="#1f2328" font-size="11" font-family="-apple-system, BlinkMacSystemFont, Segoe UI, Helvetica, Arial, sans-serif">Fri</text>
<rect x="0" y="0" width="11" height="11" fill="#ebedf0" rx="2" ry="2"><title>0 reviews on 2025-01-05</title></rect>
<rect x="0" y="14" width="11" height="11" fill="#9be9a8" rx="2" ry="2"><title>1 reviews on 2025-01-06</title></rect>
<rect x="0" y="28" width="11" height="11" fill="#ebedf0" rx="2" ry="2"><title>0 reviews on 2025-01-07</title></rect>
<rect x="0" y="42" width="11" height="11" fill="#ebedf0" rx="2" ry="2"><title>0 reviews on 2025-01-08</title></rect>
<rect x="0" y="56" width="11" height="11" fill="#ebedf0" rx="2" ry="2"><title>0 reviews on 2025-01-09</title></rect>
<rect x="0" y="70" width="11" height="11" fill="#ebedf0" rx="2" ry="2"><title>0 reviews on 2025-01-10</title></rect>
<rect x="0" y="84" width="11" height="11" fill="#ebedf0" rx="2" ry="2"><title>0 reviews on 2025-01-11</title></rect>
<rect x="14" y="0" width="11" height="11" fill="#ebedf0" rx="2" ry="2"><title>0 reviews on 2025-01-12</title></rect>
<rect x="14" y="14" width="11" height="11" fill="#ebedf0" rx="2" ry="2"><title>0 reviews on 2025-01-13</title></rect>
<rect x="14" y="28" width="11" height="11" fill="#ebedf0" rx="2" ry="2"><title>0 reviews on 2025-01-14</title></rect>
<rect x="14" y="42" width="11" height="11" fill="#ebedf0" rx="2" ry="2"><title>0 reviews on 2025-01-15</title></rect>
<rect x="14" y="56" width="11" height="11" fill="#ebedf0" rx="2" ry="2"><title>0 reviews on 2025-01-16</title></rect>
<rect x="14" y="70" width="11" height="11" fill="#ebedf0" rx="2" ry="2"><title>0 reviews on 2025-01-17</title></rect>
<rect x="14" y="84" width="11" height="11" fill="#ebedf0" rx="2" ry="2"><title>0 reviews on 2025-01-18</title></rect>
<rect x="28" y="0" width="11" height="11" fill="#ebedf0" rx="2" ry="2"><title>0 reviews on 2025-01-19</title></rect>
<rect x="28" y="14" width="11" height="11" fill="#ebedf0" rx="2" ry="2"><title>0 reviews on 2025-01-20</title></rect>
<rect x="28" y="28" width="11" height="11" fill="#ebedf0" rx="2" ry="2"><title>0 reviews on 2025-01-21</title></rect>
<rect x="28" y="42" width="11" height="11" fill="#ebedf0" rx="2" ry="2"><title>0 reviews on 2025-01-22</title></rect>
<rect x="28" y="56" width="11" height="11" fill="#ebedf0" rx="2" ry="2"><title>0 reviews on 2025-01-23</title></rect>
<rect x="28" y="70" width="11" height="11" fill="#ebedf0" rx="2" ry="2"><title>0 reviews on 2025-01-24</title></rect>
<rect x="28" y="84" width="11" height="11" fill="#ebedf0" rx="2" ry="2"><title>0 reviews on 2025-01-25</title></rect>
<rect x="42" y="0" width="11" height="11" fill="#ebedf0" rx="2" ry="2"><title>0 reviews on 2025-01-26</title></rect>
<rect x="42" y="14" width="11" height="11" fill="#ebedf0" rx="2" ry="2"><title>0 reviews on 2025-01-27</title></rect>
<rect x="42" y="28" width="11" height="11" fill="#ebedf0" rx="2" ry="2"><title>0 reviews on 2025-01-28</title></rect>
<rect x="42" y="42" width="11" height="11" fill="#ebedf0" rx="2" ry="2"><title>0 reviews on 2025-01-29</title></rect>
<rect x="42" y="56" width="11" height="11" fill="#ebedf0" rx="2" ry="2"><title>0 reviews on 2025-01-30</title></rect>
<rect x="42" y="70" width="11" height="11" fill="#ebedf0" rx="2" ry="2"><title>0 reviews on 2025-01-31</title></rect>
<rect x="42" y="84" width="11" height="11" fill="#ebedf0" rx="2" ry="2"><title>0 reviews on 2025-02-01</title></rect>
<rect x="56" y="0" width="11" height="11" fill="#ebedf0" rx="2" ry="2"><title>0 reviews on 2025-02-02</title></rect>
<rect x="56" y="14" width="11" height="11" fill="#ebedf0" rx="2" ry="2"><title>0 reviews on 2025-02-03</title></rect>
<rect x="56" y="28" width="11" height="11" fill="#ebedf0" rx="2" ry="2"><title>0 reviews on 2025-02-04</title></rect>
<rect x="56" y="42" width="11" height="11" fill="#ebedf0" rx="2" ry="2"><title>0 reviews on 2025-02-05</title></rect>
<rect x="56" y="56" width="11" height="11" fill="#ebedf0" rx="2" ry="2"><title>0 reviews on 2025-02-06</title></rect>
<rect x="56" y="70" width="11" height="11" fill="#ebedf0" rx="2" ry="2"><title>0 reviews on 2025-02-07</title></rect>
<rect x="56" y="84" width="11" height="11" fill="#ebedf0" rx="2" ry="2"><title>0 reviews on 2025-02-08</title></rect>
<rect x="70" y="0" width="11" height="11" fill="#ebedf0" rx="2" ry="2"><title>0 reviews on 2025-02-09</title></rect>
<rect x="70" y="14" width="11" height="11" fill="#ebedf0" rx="2" ry="2"><title>0 reviews on 2025-02-10</title></rect>
<rect x="70" y="28" width="11" height="11" fill="#ebedf0" rx="2" ry="2"><title>0 reviews on 2025-02-11</title></rect>
<rect x="70" y="42" width="11" height="11" fill="#ebedf0" rx="2" ry="2"><title>0 reviews on 2025-02-12</title></rect>
<rect x="70" y="56" width="11" height="11" fill="#ebedf0" rx="2" ry="2"><title>0 reviews on 2025-02-13</title></rect>
<rect x="70" y="70" width="11" height="11" fill="#ebedf0" rx="2" ry="2"><title>0 reviews on 2025-02-14</title></rect>
<rect x="70" y="84" width="11" height="11" fill="#ebedf0" rx="2" ry="2"><title>0 reviews on 2025-02-15</title></rect>
<rect x="84" y="0" width="11" height="11" fill="#ebedf0" rx="2" ry="2"><title>0 reviews on 2025-02-16</title></rect>
<rect x="84" y="14" width="11" height="11" fill="#ebedf0" rx="2" ry="2"><title>0 reviews on 2025-02-17</title></rect>
<rect x="84" y="28" width="11" height="11" fill="#ebedf0" rx="2" ry="2"><title>0 reviews on 2025-02-18</title></rect>
<rect x="84" y="42" width="11" height="11" fill="#ebedf0" rx="2" ry="2"><title>0 reviews on 2025-02-19</title></rect>
<rect x="84" y="56" width="11" height="11" fill="#ebedf0" rx="2" ry="2"><title>0 reviews on 2025-02-20</title></rect>
<rect x="84" y="70" width="11" height="11" fill="#ebedf0" rx="2" ry="2"><title>0 reviews on 2025-02-21</title></rect>
<rect x="84" y="84" width="11" height="11" fill="#ebedf0" rx="2" ry="2"><title>0 reviews on 2025-02-22</title></rect>
<rect x="98" y="0" width="11" height="11" fill="#ebedf0" rx="2" ry="2"><title>0 reviews on 2025-02-23</title></rect>
<rect x="98" y="14" width="11" height="11" fill="#ebedf0" rx="2" ry="2"><title>0 reviews on 2025-02-24</title></rect>
<rect x="98" y="28" width="11" height="11" fill="#ebedf0" rx="2" ry="2"><title>0 reviews on 2025-02-25</title></rect>
<rect x="98" y="42" width="11" height="11" fill="#ebedf0" rx="2" ry="2"><title>0 reviews on 2025-02-26</title></rect>
<rect x="98" y="56" width="11" height="11" fill="#ebedf0" rx="2" ry="2"><title>0 reviews on 2025-02-27</title></rect>
<rect x="98" y="70" width="11" height="11" fill="#ebedf0" rx="2" ry="2"><title>0 reviews on 2025-02-28</title></rect>
<rect x="98" y="84" width="11" height="11" fill="#ebedf0" rx="2" ry="2"><title>0 reviews on 2025-03-01</title></rect>
<rect x="112" y="0" width="11" height="11" fill="#ebedf0" rx="2" ry="2"><title>0 reviews on 2025-03-02</title></rect>
<rect x="112" y="14" width="11" height="11" fill="#ebedf0" rx="2" ry="2"><title>0 reviews on 2025-03-03</title></rect>
<rect x="112" y="28" width="11" height="11" fill="#ebedf0" rx="2" ry="2"><title>0 reviews on 2025-03-04</title></rect>
<rect x="112" y="42" width="11" height="11" fill="#ebedf0" rx="2" ry="2"><title>0 reviews on 2025-03-05</title></rect>
<rect x="112" y="56" width="11" height="11" fill="#ebedf0" rx="2" ry="2"><title>0 reviews on 2025-03-06</title></rect>
<rect x="112" y="70" width="11" height="11" fill="#ebedf0" rx="2" ry="2"><title>0 reviews on 2025-03-07</title></rect>
<rect x="112" y="84" width="11" height="11" fill="#ebedf0" rx="2" ry="2"><title>0 reviews on 2025-03-08</title></rect>
<rect x="126" y="0" width="11" height="11" fill="#ebedf0" rx="2" ry="2"><title>0 reviews on 2025-03-09</title></rect>
<rect x="126" y="14" width="11" height="11" fill="#ebedf0" rx="2" ry="2"><title>0 reviews on 2025-03-10</title></rect>
<rect x="126" y="28" width="11" height="11" fill="#ebedf0" rx="2" ry="2"><title>0 reviews on 2025-03-11</title></rect>
<rect x="126" y="42" width="11" height="11" fill="#ebedf0" rx="2" ry="2"><title>0 reviews on 2025-03-12</title></rect>
<rect x="126" y="56" width="11" height="11" fill="#ebedf0" rx="2" ry="2"><title>0 reviews on 2025-03-13</title></rect>
<rect x="126" y="70" width="11" height="11" fill="#ebedf0" rx="2" ry="2"><title>0 reviews on 2025-03-14</title></rect>
<rect x="126" y="84" width="11" height="11" fill="#ebedf0" rx="2" ry="2"><title>0 reviews on 2025-03-15</title></rect>
<rect x="140" y="0" width="11" height="11" fill="#9be9a8" rx="2" ry="2"><title>3 reviews on 2025-03-16</title></rect>
<rect x="140" y="14" width="11" height="11" fill="#ebedf0" rx="2" ry="2"><title>0 reviews on 2025-03-17</title></rect>
<rect x="140" y="28" width="11" height="11" fill="#ebedf0" rx="2" ry="2"><title>0 reviews on 2025-03-18</title></rect>
<rect x="140" y="42" width="11" height="11" fill="#ebedf0" rx="2" ry="2"><title>0 reviews on 2025-03-19</title></rect>
<rect x="140" y="56" width="11" height="11" fill="#ebedf0" rx="2" ry="2"><title>0 reviews on 2025-03-20</title></rect>
<rect x="140" y="70" width="11" height="11" fill="#ebedf0" rx="2" ry="2"><title>0 reviews on 2025-03-21</title></rect>
<rect x="140" y="84" width="11" height="11" fill="#ebedf0" rx="2" ry="2"><title>0 reviews on 2025-03-22</title></rect>
<rect x="154" y="0" width="11" height="11" fill="#ebedf0" rx="2" ry="2"><title>0 reviews on 2025-03-23</title></rect>
<rect x="154" y="14" width="11" height="11" fill="#ebedf0" rx="2" ry="2"><title>0 reviews on 2025-03-24</title></rect>
<rect x="154" y="28" width="11" height="11" fill="#ebedf0" rx="2" ry="2"><title>0 reviews on 2025-03-25</title></rect>
<rect x="154" y="42" width="11" height="11" fill="#ebedf0" rx="2" ry="2"><title>0 reviews on 2025-03-26</title></rect>
<rect x="154" y="56" width="11" height="11" fill="#ebedf0" rx="2" ry="2"><title>0 reviews on 2025-03-27</title></rect>
<rect x="154" y="70" width="11" height="11" fill="#ebedf0" rx="2" ry="2"><title>0 reviews on 2025-03-28</title></rect>
<rect x="154" y="84" width="11" height="11" fill="#ebedf0" rx="2" ry="2"><title>0 reviews on 2025-03-29</title></rect>
<rect x="168" y="0" width="11" height="11" fill="#ebedf0" rx="2" ry="2"><title>0 reviews on 2025-03-30</title></rect>
<rect x="168" y="14" width="11" height="11" fill="#ebedf0" rx="2" ry="2"><title>0 reviews on 2025-03-31</title></rect>
<rect x="168" y="28" width="11" height="11" fill="#ebedf0" rx="2" ry="2"><title>0 reviews on 2025-04-01</title></rect>
<rect x="168" y="42" width="11" height="11" fill="#ebedf0" rx="2" ry="2"><title>0 reviews on 2025-04-02</title></rect>
<rect x="168" y="56" width="11" height="11" fill="#ebedf0" rx="2" ry="2"><title>0 reviews on 2025-04-03</title></rect>
<rect x="168" y="70" width="11" height="11" fill="#ebedf0" rx="2" ry="2"><title>0 reviews on 2025-04-04</title></rect>
<rect x="168" y="84" width="11" height="11" fill="#ebedf0" rx="2" ry="2"><title>0 reviews on 2025-04-05</title></rect>
<rect x="182" y="0" width="11" height="11" fill="#ebedf0" rx="2" ry="2"><title>0 reviews on 2025-04-06</title></rect>
<rect x="182" y="14" width="11" height="11" fill="#ebedf0" rx="2" ry="2"><title>0 reviews on 2025-04-07</title></rect>
<rect x="182" y="28" width="11" height="11" fill="#ebedf0" rx="2" ry="2"><title>0 reviews on 2025-04-08</title></rect>
<rect x="182" y="42" width="11" height="11" fill="#ebedf0" rx="2" ry="2"><title>0 reviews on 2025-04-09</title></rect>
<rect x="182" y="56" width="11" height="11" fill="#ebedf0" rx="2" ry="2"><title>0 reviews on 2025-04-10</title></rect>
<rect x="182" y="70" width="11" height="11" fill="#ebedf0" rx="2" ry="2"><title>0 reviews on 2025-04-11</title></rect>
<rect x="182" y="84" width="11" height="11" fill="#ebedf0" rx="2" ry="2"><title>0 reviews on 2025-04-12</title></rect>
<rect x="196" y="0" width="11" height="11" fill="#ebedf0" rx="2" ry="2"><title>0 reviews on 2025-04-13</title></rect>
<rect x="196" y="14" width="11" height="11" fill="#ebedf0" rx="2" ry="2"><title>0 reviews on 2025-04-14</title></rect>
<rect x="196" y="28" width="11" height="11" fill="#9be9a8" rx="2" ry="2"><title>2 reviews on 2025-04-15</title></rect>
<rect x="196" y="42" width="11" height="11" fill="#ebedf0" rx="2" ry="2"><title>0 reviews on 2025-04-16</title></rect>
<rect x="196" y="56" width="11" height="11" fill="#9be9a8" rx="2" ry="2"><title>4 reviews on 2025-04-17</title></rect>
<rect x="196" y="70" width="11" height="11" fill="#ebedf0" rx="2" ry="2"><title>0 reviews on 2025-04-18</title></rect>
<rect x="196" y="84" width="11" height="11" fill="#ebedf0" rx="2" ry="2"><title>0 reviews on 2025-04-19</title></rect>
<rect x="210" y="0" width="11" height="11" fill="#ebedf0" rx="2" ry="2"><title>0 reviews on 2025-04-20</title></rect>
<rect x="210" y="14" width="11" height="11" fill="#ebedf0" rx="2" ry="2"><title>0 reviews on 2025-04-21</title></rect>
<rect x="210" y="28" width="11" height="11" fill="#ebedf0" rx="2" ry="2"><title>0 reviews on 2025-04-22</title></rect>
<rect x="210" y="42" width="11" height="11" fill="#ebedf0" rx="2" ry="2"><title>0 reviews on 2025-04-23</title></rect>
<rect x="210" y="56" width="11" height="11" fill="#ebedf0" rx="2" ry="2"><title>0 reviews on 2025-04-24</title></rect>
<rect x="210" y="70" width="11" height="11" fill="#ebedf0" rx="2" ry="2"><title>0 reviews on 2025-04-25</title></rect>
<rect x="210" y="84" width="11" height="11" fill="#ebedf0" rx="2" ry="2"><title>0 reviews on 2025-04-26</title></rect>
<rect x="224" y="0" width="11" height="11" fill="#ebedf0" rx="2" ry="2"><title>0 reviews on 2025-04-27</title></rect>
<rect x="224" y="14" width="11" height="11" fill="#ebedf0" rx="2" ry="2"><title>0 reviews on 2025-04-28</title></rect>
<rect x="224" y="28" width="11" height="11" fill="#ebedf0" rx="2" ry="2"><title>0 reviews on 2025-04-29</title></rect>
<rect x="224" y="42" width="11" height="11" fill="#ebedf0" rx="2" ry="2"><title>0 reviews on 2025-04-30</title></rect>
<rect x="224" y="56" width="11" height="11" fill="#ebedf0" rx="2" ry="2"><title>0 reviews on 2025-05-01</title></rect>
<rect x="224" y="70" width="11" height="11" fill="#ebedf0" rx="2" ry="2"><title>0 reviews on 2025-05-02</title></rect>
<rect x="224" y="84" width="11" height="11" fill="#9be9a8" rx="2" ry="2"><title>7 reviews on 2025-05-03</title></rect>
<rect x="238" y="0" width="11" height="11" fill="#ebedf0" rx="2" ry="2"><title>0 reviews on 2025-05-04</title></rect>
<rect x="238" y="14" width="11" height="11" fill="#ebedf0" rx="2" ry="2"><title>0 reviews on 2025-05-05</title></rect>
<rect x="238" y="28" width="11" height="11" fill="#9be9a8" rx="2" ry="2"><title>1 reviews on 2025-05-06</title></rect>
<rect x="238" y="42" width="11" height="11" fill="#ebedf0" rx="2" ry="2"><title>0 reviews on 2025-05-07</title></rect>
<rect x="238" y="56" width="11" height="11" fill="#ebedf0" rx="2" ry="2"><title>0 reviews on 2025-05-08</title></rect>
<rect x="238" y="70" width="11" height="11" fill="#ebedf0" rx="2" ry="2"><title>0 reviews on 2025-05-09</title></rect>
<rect x="238" y="84" width="11" height="11" fill="#ebedf0" rx="2" ry="2"><title>0 reviews on 2025-05-10</title></rect>
<rect x="252" y="0" width="11" height="11" fill="#ebedf0" rx="2" ry="2"><title>0 reviews on 2025-05-11</title></rect>
<rect x="252" y="14" width="11" height="11" fill="#ebedf0" rx="2" ry="2"><title>0 reviews on 2025-05-12</title></rect>
<rect x="252" y="28" width="11" height="11" fill="#ebedf0" rx="2" ry="2"><title>0 reviews on 2025-05-13</title></rect>
<rect x="252" y="42" width="11" height="11" fill="#ebedf0" rx="2" ry="2"><title>0 reviews on 2025-05-14</title></rect>
<rect x="252" y="56" width="11" height="11" fill="#ebedf0" rx="2" ry="2"><title>0 reviews on 2025-05-15</title></rect>
<rect x="252" y="70" width="11" height="11" fill="#ebedf0" rx="2" ry="2"><title>0 reviews on 2025-05-16</title></rect>
<rect x="252" y="84" width="11" height="11" fill="#ebedf0" rx="2" ry="2"><title>0 reviews on 2025-05-17</title></rect>
<rect x="266" y="0" width="11" height="11" fill="#ebedf0" rx="2" ry="2"><title>0 reviews on 2025-05-18</title></rect>
<rect x="266" y="14" width="11" height="11" fill="#ebedf0" rx="2" ry="2"><title>0 reviews on 2025-05-19</title></rect>
<rect x="266" y="28" width="11" height="11" fill="#ebedf0" rx="2" ry="2"><title>0 reviews on 2025-05-20</title></rect>
<rect x="266" y="42" width="11" height="11" fill="#ebedf0" rx="2" ry="2"><title>0 reviews on 2025-05-21</title></rect>
<rect x="266" y="56" width="11" height="11" fill="#ebedf0" rx="2" ry="2"><title>0 reviews on 2025-05-22</title></rect>
<rect x="266" y="70" width="11" height="11" fill="#ebedf0" rx="2" ry="2"><title>0 reviews on 2025-05-23</title></rect>
<rect x="266" y="84" width="11" height="11" fill="#ebedf0" rx="2" ry="2"><title>0 reviews on 2025-05-24</title></rect>
<rect x="280" y="0" width="11" height="11" fill="#ebedf0" rx="2" ry="2"><title>0 reviews on 2025-05-25</title></rect>
<rect x="280" y="14" width="11" height="11" fill="#ebedf0" rx="2" ry="2"><title>0 reviews on 2025-05-26</title></rect>
<rect x="280" y="28" width="11" height="11" fill="#ebedf0" rx="2" ry="2"><title>0 reviews on 2025-05-27</title></rect>
<rect x="280" y="42" width="11" height="11" fill="#ebedf0" rx="2" ry="2"><title>0 reviews on 2025-05-28</title></rect>
<rect x="280" y="56" width="11" height="11" fill="#ebedf0" rx="2" ry="2"><title>0 reviews on 2025-05-29</title></rect>
<rect x="280" y="70" width="11" height="11" fill="#ebedf0" rx="2" ry="2"><title>0 reviews on 2025-05-30</title></rect>
<rect x="280" y="84" width="11" height="11" fill="#ebedf0" rx="2" ry="2"><title>0 reviews on 2025-05-31</title></rect>
<rect x="294" y="0" width="11" height="11" fill="#ebedf0" rx="2" ry="2"><title>0 reviews on 2025-06-01</title></rect>
<rect x="294" y="14" width="11" height="11" fill="#ebedf0" rx="2" ry="2"><title>0 reviews on 2025-06-02</title></rect>
<rect x="294" y="28" width="11" height="11" fill="#ebedf0" rx="2" ry="2"><title>0 reviews on 2025-06-03</title></rect>
<rect x="294" y="42" width="11" height="11" fill="#ebedf0" rx="2" ry="2"><title>0 reviews on 2025-06-04</title></rect>
<rect x="294" y="56" width="11" height="11" fill="#ebedf0" rx="2" ry="2"><title>0 reviews on 2025-06-05</title></rect>
<rect x="294" y="70" width="11" height="11" fill="#ebedf0" rx="2" ry="2"><title>0 reviews on 2025-06-06</title></rect>
<rect x="294" y="84" width="11" height="11" fill="#ebedf0" rx="2" ry="2"><title>0 reviews on 2025-06-07</title></rect>
<rect x="308" y="0" width="11" height="11" fill="#ebedf0" rx="2" ry="2"><title>0 reviews on 2025-06-08</title></rect>
<rect x="308" y="14" width="11" height="11" fill="#ebedf0" rx="2" ry="2"><title>0 reviews on 2025-06-09</title></rect>
<rect x="308" y="28" width="11" height="11" fill="#ebedf0" rx="2" ry="2"><title>0 reviews on 2025-06-10</title></rect>
<rect x="308" y="42" width="11" height="11" fill="#ebedf0" rx="2" ry="2"><title>0 reviews on 2025-06-11</title></rect>
<rect x="308" y="56" width="11" height="11" fill="#ebedf0" rx="2" ry="2"><title>0 reviews on 2025-06-12</title></rect>
<rect x="308" y="70" width="11" height="11" fill="#ebedf0" rx="2" ry="2"><title>0 reviews on 2025-06-13</title></rect>
<rect x="308" y="84" width="11" height="11" fill="#ebedf0" rx="2" ry="2"><title>0 reviews on 2025-06-14</title></rect>
<rect x="322" y="0" width="11" height="11" fill="#ebedf0" rx="2" ry="2"><title>0 reviews on 2025-06-15</title></rect>
<rect x="322" y="14" width="11" height="11" fill="#ebedf0" rx="2" ry="2"><title>0 reviews on 2025-06-16</title></rect>
<rect x="322" y="28" width="11" height="11" fill="#ebedf0" rx="2" ry="2"><title>0 reviews on 2025-06-17</title></rect>
<rect x="322" y="42" width="11" height="11" fill="#ebedf0" rx="2" ry="2"><title>0 reviews on 2025-06-18</title></rect>
<rect x="322" y="56" width="11" height="11" fill="#ebedf0" rx="2" ry="2"><title>0 reviews on 2025-06-19</title></rect>
<rect x="322" y="70" width="11" height="11" fill="#ebedf0" rx="2" ry="2"><title>0 reviews on 2025-06-20</title></rect>
<rect x="322" y="84" width="11" height="11" fill="#ebedf0" rx="2" ry="2"><title>0 reviews on 2025-06-21</title></rect>
<rect x="336" y="0" width="11" height="11" fill="#ebedf0" rx="2" ry="2"><title>0 reviews on 2025-06-22</title></rect>
<rect x="336" y="14" width="11" height="11" fill="#ebedf0" rx="2" ry="2"><title>0 reviews on 2025-06-23</title></rect>
<rect x="336" y="28" width="11" height="11" fill="#ebedf0" rx="2" ry="2"><title>0 reviews on 2025-06-24</title></rect>
<rect x="336" y="42" width="11" height="11" fill="#ebedf0" rx="2" ry="2"><title>0 reviews on 2025-06-25</title></rect>
<rect x="336" y="56" width="11" height="11" fill="#ebedf0" rx="2" ry="2"><title>0 reviews on 2025-06-26</title></rect>
<rect x="336" y="70" width="11" height="11" fill="#ebedf0" rx="2" ry="2"><title>0 reviews on 2025-06-27</title></rect>
<rect x="336" y="84" width="11" height="11" fill="#ebedf0" rx="2" ry="2"><title>0 reviews on 2025-06-28</title></rect>
<rect x="350" y="0" width="11" height="11" fill="#ebedf0" rx="2" ry="2"><title>0 reviews on 2025-06-29</title></rect>
<rect x="350" y="14" width="11" height="11" fill="#ebedf0" rx="2" ry="2"><title>0 reviews on 2025-06-30</title></rect>
<rect x="350" y="28" width="11" height="11" fill="#ebedf0" rx="2" ry="2"><title>0 reviews on 2025-07-01</title></rect>
<rect x="350" y="42" width="11" height="11" fill="#ebedf0" rx="2" ry="2"><title>0 reviews on 2025-07-02</title></rect>
<rect x="350" y="56" width="11" height="11" fill="#ebedf0" rx="2" ry="2"><title>0 reviews on 2025-07-03</title></rect>
<rect x="350" y="70" width="11" height="11" fill="#ebedf0" rx="2" ry="2"><title>0 reviews on 2025-07-04</title></rect>
<rect x="350" y="84" width="11" height="11" fill="#ebedf0" rx="2" ry="2"><title>0 reviews on 2025-07-05</title></rect>
<rect x="364" y="0" width="11" height="11" fill="#ebedf0" rx="2" ry="2"><title>0 reviews on 2025-07-06</title></rect>
<rect x="364" y="14" width="11" height="11" fill="#ebedf0" rx="2" ry="2"><title>0 reviews on 2025-07-07</title></rect>
<rect x="364" y="28" width="11" height="11" fill="#ebedf0" rx="2" ry="2"><title>0 reviews on 2025-07-08</title></rect>
<rect x="364" y="42" width="11" height="11" fill="#ebedf0" rx="2" ry="2"><title>0 reviews on 2025-07-09</title></rect>
<rect x="364" y="56" width="11" height="11" fill="#ebedf0" rx="2" ry="2"><title>0 reviews on 2025-07-10</title></rect>
<rect x="364" y="70" width="11" height="11" fill="#ebedf0" rx="2" ry="2"><title>0 reviews on 2025-07-11</title></rect>
<rect x="364" y="84" width="11" height="11" fill="#ebedf0" rx="2" ry="2"><title>0 reviews on 2025-07-12</title></rect>
<rect x="378" y="0" width="11" height="11" fill="#ebedf0" rx="2" ry="2"><title>0 reviews on 2025-07-13</title></rect>
<rect x="378" y="14" width="11" height="11" fill="#ebedf0" rx="2" ry="2"><title>0 reviews on 2025-07-14</title></rect>
<rect x="378" y="28" width="11" height="11" fill="#ebedf0" rx="2" ry="2"><title>0 reviews on 2025-07-15</title></rect>
<rect x="378" y="42" width="11" height="11" fill="#ebedf0" rx="2" ry="2"><title>0 reviews on 2025-07-16</title></rect>
<rect x="378" y="56" width="11" height="11" fill="#ebedf0" rx="2" ry="2"><title>0 reviews on 2025-07-17</title></rect>
<rect x="378" y="70" width="11" height="11" fill="#ebedf0" rx="2" ry="2"><title>0 reviews on 2025-07-18</title></rect>
<rect x="378" y="84" width="11" height="11" fill="#ebedf0" rx="2" ry="2"><title>0 reviews on 2025-07-19</title></rect>
<rect x="392" y="0" width="11" height="11" fill="#ebedf0" rx="2" ry="2"><title>0 reviews on 2025-07-20</title></rect>
<rect x="392" y="14" width="11" height="11" fill="#ebedf0" rx="2" ry="2"><title>0 reviews on 2025-07-21</title></rect>
<rect x="392" y="28" width="11" height="11" fill="#ebedf0" rx="2" ry="2"><title>0 reviews on 2025-07-22</title></rect>
<rect x="392" y="42" width="11" height="11" fill="#ebedf0" rx="2" ry="2"><title>0 reviews on 2025-07-23</title></rect>
<rect x="392" y="56" width="11" height="11" fill="#ebedf0" rx="2" ry="2"><title>0 reviews on 2025-07-24</title></rect>
<rect x="392" y="70" width="11" height="11" fill="#ebedf0" rx="2" ry="2"><title>0 reviews on 2025-07-25</title></rect>
<rect x="392" y="84" width="11" height="11" fill="#ebedf0" rx="2" ry="2"><title>0 reviews on 2025-07-26</title></rect>
<rect x="406" y="0" width="11" height="11" fill="#ebedf0" rx="2" ry="2"><title>0 reviews on 2025-07-27</title></rect>
<rect x="406" y="14" width="11" height="11" fill="#ebedf0" rx="2" ry="2"><title>0 reviews on 2025-07-28</title></rect>
<rect x="406" y="28" width="11" height="11" fill="#ebedf0" rx="2" ry="2"><title>0 reviews on 2025-07-29</title></rect>
<rect x="406" y="42" width="11" height="11" fill="#ebedf0" rx="2" ry="2"><title>0 reviews on 2025-07-30</title></rect>
<rect x="406" y="56" width="11" height="11" fill="#ebedf0" rx="2" ry="2"><title>0 reviews on 2025-07-31</title></rect>
<rect x="406" y="70" width="11" height="11" fill="#ebedf0" rx="2" ry="2"><title>0 reviews on 2025-08-01</title></rect>
<rect x="406" y="84" width="11" height="11" fill="#ebedf0" rx="2" ry="2"><title>0 reviews on 2025-08-02</title></rect>
<rect x="420" y="0" width="11" height="11" fill="#ebedf0" rx="2" ry="2"><title>0 reviews on 2025-08-03</title></rect>
<rect x="420" y="14" width="11" height="11" fill="#ebedf0" rx="2" ry="2"><title>0 reviews on 2025-08-04</title></rect>
<rect x="420" y="28" width="11" height="11" fill="#ebedf0" rx="2" ry="2"><title>0 reviews on 2025-08-05</title></rect>
<rect x="420" y="42" width="11" height="11" fill="#ebedf0" rx="2" ry="2"><title>0 reviews on 2025-08-06</title></rect>
<rect x="420" y="56" width="11" height="11" fill="#ebedf0" rx="2" ry="2"><title>0 reviews on 2025-08-07</title></rect>
<rect x="420" y="70" width="11" height="11" fill="#ebedf0" rx="2" ry="2"><title>0 reviews on 2025-08-08</title></rect>
<rect x="420" y="84" width="11" height="11" fill="#ebedf0" rx="2" ry="2"><title>0 reviews on 2025-08-09</title></rect>
<rect x="434" y="0" width="11" height="11" fill="#ebedf0" rx="2" ry="2"><title>0 reviews on 2025-08-10</title></rect>
<rect x="434" y="14" width="11" height="11" fill="#ebedf0" rx="2" ry="2"><title>0 reviews on 2025-08-11</title></rect>
<rect x="434" y="28" width="11" height="11" fill="#ebedf0" rx="2" ry="2"><title>0 reviews on 2025-08-12</title></rect>
<rect x="434" y="42" width="11" height="11" fill="#ebedf0" rx="2" ry="2"><title>0 reviews on 2025-08-13</title></rect>
<rect x="434" y="56" width="11" height="11" fill="#ebedf0" rx="2" ry="2"><title>0 reviews on 2025-08-14</title></rect>
<rect x="434" y="70" width="11" height="11" fill="#ebedf0" rx="2" ry="2"><title>0 reviews on 2025-08-15</title></rect>
<rect x="434" y="84" width="11" height="11" fill="#ebedf0" rx="2" ry="2"><title>0 reviews on 2025-08-16</title></rect>
<rect x="448" y="0" width="11" height="11" fill="#ebedf0" rx="2" ry="2"><title>0 reviews on 2025-08-17</title></rect>
<rect x="448" y="14" width="11" height="11" fill="#ebedf0" rx="2" ry="2"><title>0 reviews on 2025-08-18</title></rect>
<rect x="448" y="28" width="11" height="11" fill="#ebedf0" rx="2" ry="2"><title>0 reviews on 2025-08-19</title></rect>
<rect x="448" y="42" width="11" height="11" fill="#ebedf0" rx="2" ry="2"><title>0 reviews on 2025-08-20</title></rect>
<rect x="448" y="56" width="11" height="11" fill="#ebedf0" rx="2" ry="2"><title>0 reviews on 2025-08-21</title></rect>
<rect x="448" y="70" width="11" height="11" fill="#ebedf0" rx="2" ry="2"><title>0 reviews on 2025-08-22</title></rect>
<rect x="448" y="84" width="11" height="11" fill="#ebedf0" rx="2" ry="2"><title>0 reviews on 2025-08-23</title></rect>
<rect x="462" y="0" width="11" height="11" fill="#ebedf0" rx="2" ry="2"><title>0 reviews on 2025-08-24</title></rect>
<rect x="462" y="14" width="11" height="11" fill="#ebedf0" rx="2" ry="2"><title>0 reviews on 2025-08-25</title></rect>
<rect x="462" y="28" width="11" height="11" fill="#ebedf0" rx="2" ry="2"><title>0 reviews on 2025-08-26</title></rect>
<rect x="462" y="42" width="11" height="11" fill="#ebedf0" rx="2" ry="2"><title>0 reviews on 2025-08-27</title></rect>
<rect x="462" y="56" width="11" height="11" fill="#ebedf0" rx="2" ry="2"><title>0 reviews on 2025-08-28</title></rect>
<rect x="462" y="70" width="11" height="11" fill="#ebedf0" rx="2" ry="2"><title>0 reviews on 2025-08-29</title></rect>
<rect x="462" y="84" width="11" height="11" fill="#ebedf0" rx="2" ry="2"><title>0 reviews on 2025-08-30</title></rect>
<rect x="476" y="0" width="11" height="11" fill="#ebedf0" rx="2" ry="2"><title>0 reviews on 2025-08-31</title></rect>
<rect x="476" y="14" width="11" height="11" fill="#ebedf0" rx="2" ry="2"><title>0 reviews on 2025-09-01</title></rect>
<rect x="476" y="28" width="11" height="11" fill="#ebedf0" rx="2" ry="2"><title>0 reviews on 2025-09-02</title></rect>
<rect x="476" y="42" width="11" height="11" fill="#ebedf0" rx="2" ry="2"><title>0 reviews on 2025-09-03</title></rect>
<rect x="476" y="56" width="11" height="11" fill="#ebedf0" rx="2" ry="2"><title>0 reviews on 2025-09-04</title></rect>
<rect x="476" y="70" width="11" height="11" fill="#ebedf0" rx="2" ry="2"><title>0 reviews on 2025-09-05</title></rect>
<rect x="476" y="84" width="11" height="11" fill="#ebedf0" rx="2" ry="2"><title>0 reviews on 2025-09-06</title></rect>
<rect x="490" y="0" width="11" height="11" fill="#ebedf0" rx="2" ry="2"><title>0 reviews on 2025-09-07</title></rect>
<rect x="490" y="14" width="11" height="11" fill="#ebedf0" rx="2" ry="2"><title>0 reviews on 2025-09-08</title></rect>
<rect x="490" y="28" width="11" height="11" fill="#ebedf0" rx="2" ry="2"><title>0 reviews on 2025-09-09</title></rect>
<rect x="490" y="42" width="11" height="11" fill="#ebedf0" rx="2" ry="2"><title>0 reviews on 2025-09-10</title></rect>
<rect x="490" y="56" width="11" height="11" fill="#ebedf0" rx="2" ry="2"><title>0 reviews on 2025-09-11</title></rect>
<rect x="490" y="70" width="11" height="11" fill="#ebedf0" rx="2" ry="2"><title>0 reviews on 2025-09-12</title></rect>
<rect x="490" y="84" width="11" height="11" fill="#ebedf0" rx="2" ry="2"><title>0 reviews on 2025-09-13</title></rect>
<rect x="504" y="0" width="11" height="11" fill="#ebedf0" rx="2" ry="2"><title>0 reviews on 2025-09-14</title></rect>
<rect x="504" y="14" width="11" height="11" fill="#ebedf0" rx="2" ry="2"><title>0 reviews on 2025-09-15</title></rect>
<rect x="504" y="28" width="11" height="11" fill="#ebedf0" rx="2" ry="2"><title>0 reviews on 2025-09-16</title></rect>
<rect x="504" y="42" width="11" height="11" fill="#ebedf0" rx="2" ry="2"><title>0 reviews on 2025-09-17</title></rect>
<rect x="504" y="56" width="11" height="11" fill="#ebedf0" rx="2" ry="2"><title>0 reviews on 2025-09-18</title></rect>
<rect x="504" y="70" width="11" height="11" fill="#ebedf0" rx="2" ry="2"><title>0 reviews on 2025-09-19</title></rect>
<rect x="504" y="84" width="11" height="11" fill="#ebedf0" rx="2" ry="2"><title>0 reviews on 2025-09-20</title></rect>
<rect x="518" y="0" width="11" height="11" fill="#ebedf0" rx="2" ry="2"><title>0 reviews on 2025-09-21</title></rect>
<rect x="518" y="14" width="11" height="11" fill="#ebedf0" rx="2" ry="2"><title>0 reviews on 2025-09-22</title></rect>
<rect x="518" y="28" width="11" height="11" fill="#ebedf0" rx="2" ry="2"><title>0 reviews on 2025-09-23</title></rect>
<rect x="518" y="42" width="11" height="11" fill="#ebedf0" rx="2" ry="2"><title>0 reviews on 2025-09-24</title></rect>
<rect x="518" y="56" width="11" height="11" fill="#ebedf0" rx="2" ry="2"><title>0 reviews on 2025-09-25</title></rect>
<rect x="518" y="70" width="11" height="11" fill="#ebedf0" rx="2" ry="2"><title>0 reviews on 2025-09-26</title></rect>
<rect x="518" y="84" width="11" height="11" fill="#ebedf0" rx="2" ry="2"><title>0 reviews on 2025-09-27</title></rect>
<rect x="532" y="0" width="11" height="11" fill="#ebedf0" rx="2" ry="2"><title>0 reviews on 2025-09-28</title></rect>
<rect x="532" y="14" width="11" height="11" fill="#ebedf0" rx="2" ry="2"><title>0 reviews on 2025-09-29</title></rect>
<rect x="532" y="28" width="11" height="11" fill="#ebedf0" rx="2" ry="2"><title>0 reviews on 2025-09-30</title></rect>
<rect x="532" y="42" width="11" height="11" fill="#ebedf0" rx="2" ry="2"><title>0 reviews on 2025-10-01</title></rect>
<rect x="532" y="56" width="11" height="11" fill="#ebedf0" rx="2" ry="2"><title>0 reviews on 2025-10-02</title></rect>
<rect x="532" y="70" width="11" height="11" fill="#ebedf0" rx="2" ry="2"><title>0 reviews on 2025-10-03</title></rect>
<rect x="532" y="84" width="11" height="11" fill="#ebedf0" rx="2" ry="2"><title>0 reviews on 2025-10-04</title></rect>
<rect x="546" y="0" width="11" height="11" fill="#ebedf0" rx="2" ry="2"><title>0 reviews on 2025-10-05</title></rect>
<rect x="546" y="14" width="11" height="11" fill="#ebedf0" rx="2" ry="2"><title>0 reviews on 2025-10-06</title></rect>
<rect x="546" y="28" width="11" height="11" fill="#ebedf0" rx="2" ry="2"><title>0 reviews on 2025-10-07</title></rect>
<rect x="546" y="42" width="11" height="11" fill="#ebedf0" rx="2" ry="2"><title>0 reviews on 2025-10-08</title></rect>
<rect x="546" y="56" width="11" height="11" fill="#ebedf0" rx="2" ry="2"><title>0 reviews on 2025-10-09</title></rect>
<rect x="546" y="70" width="11" height="11" fill="#ebedf0" rx="2" ry="2"><title>0 reviews on 2025-10-10</title></rect>
<rect x="546" y="84" width="11" height="11" fill="#ebedf0" rx="2" ry="2"><title>0 reviews on 2025-10-11</title></rect>
<rect x="560" y="0" width="11" height="11" fill="#ebedf0" rx="2" ry="2"><title>0 reviews on 2025-10-12</title></rect>
<rect x="560" y="14" width="11" height="11" fill="#ebedf0" rx="2" ry="2"><title>0 reviews on 2025-10-13</title></rect>
<rect x="560" y="28" width="11" height="11" fill="#ebedf0" rx="2" ry="2"><title>0 reviews on 2025-10-14</title></rect>
<rect x="560" y="42" width="11" height="11" fill="#ebedf0" rx="2" ry="2"><title>0 reviews on 2025-10-15</title></rect>
<rect x="560" y="56" width="11" height="11" fill="#9be9a8" rx="2" ry="2"><title>2 reviews on 2025-10-16</title></rect>
<rect x="560" y="70" width="11" height="11" fill="#40c463" rx="2" ry="2"><title>12 reviews on 2025-10-17</title></rect>
<rect x="560" y="84" width="11" height="11" fill="#ebedf0" rx="2" ry="2"><title>0 reviews on 2025-10-18</title></rect>
<rect x="574" y="0" width="11" height="11" fill="#9be9a8" rx="2" ry="2"><title>3 reviews on 2025-10-19</title></rect>
<rect x="574" y="14" width="11" height="11" fill="#30a14e" rx="2" ry="2"><title>20 reviews on 2025-10-20</title></rect>
<rect x="574" y="28" width="11" height="11" fill="#ebedf0" rx="2" ry="2"><title>0 reviews on 2025-10-21</title></rect>
<rect x="574" y="42" width="11" height="11" fill="#ebedf0" rx="2" ry="2"><title>0 reviews on 2025-10-22</title></rect>
<rect x="574" y="56" width="11" height="11" fill="#ebedf0" rx="2" ry="2"><title>0 reviews on 2025-10-23</title></rect>
<rect x="574" y="70" width="11" height="11" fill="#ebedf0" rx="2" ry="2"><title>0 reviews on 2025-10-24</title></rect>
<rect x="574" y="84" width="11" height="11" fill="#ebedf0" rx="2" ry="2"><title>0 reviews on 2025-10-25</title></rect>
<rect x="588" y="0" width="11" height="11" fill="#ebedf0" rx="2" ry="2"><title>0 reviews on 2025-10-26</title></rect>
<rect x="588" y="14" width="11" height="11" fill="#ebedf0" rx="2" ry="2"><title>0 reviews on 2025-10-27</title></rect>
<rect x="588" y="28" width="11" height="11" fill="#9be9a8" rx="2" ry="2"><title>5 reviews on 2025-10-28</title></rect>
<rect x="588" y="42" width="11" height="11" fill="#ebedf0" rx="2" ry="2"><title>0 reviews on 2025-10-29</title></rect>
<rect x="588" y="56" width="11" height="11" fill="#216e39" rx="2" ry="2"><title>31 reviews on 2025-10-30</title></rect>
<rect x="588" y="70" width="11" height="11" fill="#ebedf0" rx="2" ry="2"><title>0 reviews on 2025-10-31</title></rect>
<rect x="588" y="84" width="11" height="11" fill="#ebedf0" rx="2" ry="2"><title>0 reviews on 2025-11-01</title></rect>
<rect x="602" y="0" width="11" height="11" fill="#ebedf0" rx="2" ry="2"><title>0 reviews on 2025-11-02</title></rect>
<rect x="602" y="14" width="11" height="11" fill="#216e39" rx="2" ry="2"><title>38 reviews on 2025-11-03</title></rect>
<rect x="602" y="28" width="11" height="11" fill="#ebedf0" rx="2" ry="2"><title>0 reviews on 2025-11-04</title></rect>
<rect x="602" y="42" width="11" height="11" fill="#ebedf0" rx="2" ry="2"><title>0 reviews on 2025-11-05</title></rect>
<rect x="602" y="56" width="11" height="11" fill="#ebedf0" rx="2" ry="2"><title>0 reviews on 2025-11-06</title></rect>
<rect x="602" y="70" width="11" height="11" fill="#ebedf0" rx="2" ry="2"><title>0 reviews on 2025-11-07</title></rect>
<rect x="602" y="84" width="11" height="11" fill="#9be9a8" rx="2" ry="2"><title>9 reviews on 2025-11-08</title></rect>
<rect x="616" y="0" width="11" height="11" fill="#ebedf0" rx="2" ry="2"><title>0 reviews on 2025-11-09</title></rect>
<rect x="616" y="14" width="11" height="11" fill="#ebedf0" rx="2" ry="2"><title>0 reviews on 2025-11-10</title></rect>
<rect x="616" y="28" width="11" height="11" fill="#ebedf0" rx="2" ry="2"><title>0 reviews on 2025-11-11</title></rect>
<rect x="616" y="42" width="11" height="11" fill="#ebedf0" rx="2" ry="2"><title>0 reviews on 2025-11-12</title></rect>
<rect x="616" y="56" width="11" height="11" fill="#ebedf0" rx="2" ry="2"><title>0 reviews on 2025-11-13</title></rect>
<rect x="616" y="70" width="11" height="11" fill="#ebedf0" rx="2" ry="2"><title>0 reviews on 2025-11-14</title></rect>
<rect x="616" y="84" width="11" height="11" fill="#ebedf0" rx="2" ry="2"><title>0 reviews on 2025-11-15</title></rect>
<rect x="630" y="0" width="11" height="11" fill="#ebedf0" rx="2" ry="2"><title>0 reviews on 2025-11-16</title></rect>
<rect x="630" y="14" width="11" height="11" fill="#ebedf0" rx="2" ry="2"><title>0 reviews on 2025-11-17</title></rect>
<rect x="630" y="28" width="11" height="11" fill="#ebedf0" rx="2" ry="2"><title>0 reviews on 2025-11-18</title></rect>
<rect x="630" y="42" width="11" height="11" fill="#ebedf0" rx="2" ry="2"><title>0 reviews on 2025-11-19</title></rect>
<rect x="630" y="56" width="11" height="11" fill="#ebedf0" rx="2" ry="2"><title>0 reviews on 2025-11-20</title></rect>
<rect x="630" y="70" width="11" height="11" fill="#ebedf0" rx="2" ry="2"><title>0 reviews on 2025-11-21</title></rect>
<rect x="630" y="84" width="11" height="11" fill="#ebedf0" rx="2" ry="2"><title>0 reviews on 2025-11-22</title></rect>
<rect x="644" y="0" width="11" height="11" fill="#ebedf0" rx="2" ry="2"><title>0 reviews on 2025-11-23</title></rect>
<rect x="644" y="14" width="11" height="11" fill="#ebedf0" rx="2" ry="2"><title>0 reviews on 2025-11-24</title></rect>
<rect x="644" y="28" width="11" height="11" fill="#ebedf0" rx="2" ry="2"><title>0 reviews on 2025-11-25</title></rect>
<rect x="644" y="42" width="11" height="11" fill="#ebedf0" rx="2" ry="2"><title>0 reviews on 2025-11-26</title></rect>
<rect x="644" y="56" width="11" height="11" fill="#ebedf0" rx="2" ry="2"><title>0 reviews on 2025-11-27</title></rect>
<rect x="644" y="70" width="11" height="11" fill="#ebedf0" rx="2" ry="2"><title>0 reviews on 2025-11-28</title></rect>
<rect x="644" y="84" width="11" height="11" fill="#ebedf0" rx="2" ry="2"><title>0 reviews on 2025-11-29</title></rect>
<rect x="658" y="0" width="11" height="11" fill="#ebedf0" rx="2" ry="2"><title>0 reviews on 2025-11-30</title></rect>
<rect x="658" y="14" width="11" height="11" fill="#ebedf0" rx="2" ry="2"><title>0 reviews on 2025-12-01</title></rect>
<rect x="658" y="28" width="11" height="11" fill="#ebedf0" rx="2" ry="2"><title>0 reviews on 2025-12-02</title></rect>
<rect x="658" y="42" width="11" height="11" fill="#ebedf0" rx="2" ry="2"><title>0 reviews on 2025-12-03</title></rect>
<rect x="658" y="56" width="11" height="11" fill="#ebedf0" rx="2" ry="2"><title>0 reviews on 2025-12-04</title></rect>
<rect x="658" y="70" width="11" height="11" fill="#ebedf0" rx="2" ry="2"><title>0 reviews on 2025-12-05</title></rect>
<rect x="658" y="84" width="11" height="11" fill="#ebedf0" rx="2" ry="2"><title>0 reviews on 2025-12-06</title></rect>
<rect x="672" y="0" width="11" height="11" fill="#ebedf0" rx="2" ry="2"><title>0 reviews on 2025-12-07</title></rect>
<rect x="672" y="14" width="11" height="11" fill="#216e39" rx="2" ry="2"><title>35 reviews on 2025-12-08</title></rect>
<rect x="672" y="28" width="11" height="11" fill="#ebedf0" rx="2" ry="2"><title>0 reviews on 2025-12-09</title></rect>
<rect x="672" y="42" width="11" height="11" fill="#ebedf0" rx="2" ry="2"><title>0 reviews on 2025-12-10</title></rect>
<rect x="672" y="56" width="11" height="11" fill="#ebedf0" rx="2" ry="2"><title>0 reviews on 2025-12-11</title></rect>
<rect x="672" y="70" width="11" height="11" fill="#ebedf0" rx="2" ry="2"><title>0 reviews on 2025-12-12</title></rect>
<rect x="672" y="84" width="11" height="11" fill="#ebedf0" rx="2" ry="2"><title>0 reviews on 2025-12-13</title></rect>
<rect x="686" y="0" width="11" height="11" fill="#ebedf0" rx="2" ry="2"><title>0 reviews on 2025-12-14</title></rect>
<rect x="686" y="14" width="11" height="11" fill="#ebedf0" rx="2" ry="2"><title>0 reviews on 2025-12-15</title></rect>
<rect x="686" y="28" width="11" height="11" fill="#ebedf0" rx="2" ry="2"><title>0 reviews on 2025-12-16</title></rect>
<rect x="686" y="42" width="11" height="11" fill="#ebedf0" rx="2" ry="2"><title>0 reviews on 2025-12-17</title></rect>
<rect x="686" y="56" width="11" height="11" fill="#ebedf0" rx="2" ry="2"><title>0 reviews on 2025-12-18</title></rect>
<rect x="686" y="70" width="11" height="11" fill="#ebedf0" rx="2" ry="2"><title>0 reviews on 2025-12-19</title></rect>
<rect x="686" y="84" width="11" height="11" fill="#ebedf0" rx="2" ry="2"><title>0 reviews on 2025-12-20</title></rect>
<rect x="700" y="0" width="11" height="11" fill="#ebedf0" rx="2" ry="2"><title>0 reviews on 2025-12-21</title></rect>
<rect x="700" y="14" width="11" height="11" fill="#ebedf0" rx="2" ry="2"><title>0 reviews on 2025-12-22</title></rect>
<rect x="700" y="28" width="11" height="11" fill="#ebedf0" rx="2" ry="2"><title>0 reviews on 2025-12-23</title></rect>
<rect x="700" y="42" width="11" height="11" fill="#ebedf0" rx="2" ry="2"><title>0 reviews on 2025-12-24</title></rect>
<rect x="700" y="56" width="11" height="11" fill="#ebedf0" rx="2" ry="2"><title>0 reviews on 2025-12-25</title></rect>
<rect x="700" y="70" width="11" height="11" fill="#ebedf0" rx="2" ry="2"><title>0 reviews on 2025-12-26</title></rect>
<rect x="700" y="84" width="11" height="11" fill="#ebedf0" rx="2" ry="2"><title>0 reviews on 2025-12-27</title></rect>
<rect x="714" y="0" width="11" height="11" fill="#ebedf0" rx="2" ry="2"><title>0 reviews on 2025-12-28</title></rect>
<rect x="714" y="14" width="11" height="11" fill="#ebedf0" rx="2" ry="2"><title>0 reviews on 2025-12-29</title></rect>
<rect x="714" y="28" width="11" height="11" fill="#ebedf0" rx="2" ry="2"><title>0 reviews on 2025-12-30</title></rect>
<rect x="714" y="42" width="11" height="11" fill="#ebedf0" rx="2" ry="2"><title>0 reviews on 2025-12-31</title></rect>
<rect x="714" y="56" width="11" height="11" fill="#ebedf0" rx="2" ry="2"><title>0 reviews on 2026-01-01</title></rect>
<rect x="714" y="70" width="11" height="11" fill="#ebedf0" rx="2" ry="2"><title>0 reviews on 2026-01-02</title></rect>
<rect x="714" y="84" width="11" height="11" fill="#40c463" rx="2" ry="2"><title>15 reviews on 2026-01-03</title></rect>
<rect x="728" y="0" width="11" height="11" fill="#9be9a8" rx="2" ry="2"><title>2 reviews on 2026-01-04</title></rect>
<rect x="728" y="14" width="11" height="11" fill="#ebedf0" rx="2" ry="2"><title>0 reviews on 2026-01-05</title></rect>
<text x="0" y="-5" fill="#1f2328" font-size="13" font-family="-apple-system, BlinkMacSystemFont, Segoe UI, Helvetica, Arial, sans-serif">Jan</text>
<text x="56" y="-5" fill="#1f2328" font-size="13" font-family="-apple-system, BlinkMacSystemFont, Segoe UI, Helvetica, Arial, sans-serif">Feb</text>
<text x="112" y="-5" fill="#1f2328" font-size="13" font-family="-apple-system, BlinkMacSystemFont, Segoe UI, Helvetica, Arial, sans-serif">Mar</text>
<text x="182" y="-5" fill="#1f2328" font-size="13" font-family="-apple-system, BlinkMacSystemFont, Segoe UI, Helvetica, Arial, sans-serif">Apr</text>
<text x="238" y="-5" fill="#1f2328" font-size="13" font-family="-apple-system, BlinkMacSystemFont, Segoe UI, Helvetica, Arial, sans-serif">May</text>
<text x="294" y="-5" fill="#1f2328" font-size="13" font-family="-apple-system, BlinkMacSystemFont, Segoe UI, Helvetica, Arial, sans-serif">Jun</text>
<text x="364" y="-5" fill="#1f2328" font-size="13" font-family="-apple-system, BlinkMacSystemFont, Segoe UI, Helvetica, Arial, sans-serif">Jul</text>
<text x="420" y="-5" fill="#1f2328" font-size="13" font-family="-apple-system, BlinkMacSystemFont, Segoe UI, Helvetica, Arial, sans-serif">Aug</text>
<text x="490" y="-5" fill="#1f2328" font-size="13" font-family="-apple-system, BlinkMacSystemFont, Segoe UI, Helvetica, Arial, sans-serif">Sep</text>
<text x="546" y="-5" fill="#1f2328" font-size="13" font-family="-apple-system, BlinkMacSystemFont, Segoe UI, Helvetica, Arial, sans-serif">Oct</text>
<text x="602" y="-5" fill="#1f2328" font-size="13" font-family="-apple-system, BlinkMacSystemFont, Segoe UI, Helvetica, Arial, sans-serif">Nov</text>
<text x="672" y="-5" fill="#1f2328" font-size="13" font-family="-apple-system, BlinkMacSystemFont, Segoe UI, Helvetica, Arial, sans-serif">Dec</text>
<text x="728" y="-5" fill="#1f2328" font-size="13" font-family="-apple-system, BlinkMacSystemFont, Segoe UI, Helvetica, Arial, sans-serif">Jan</text>
</g>
<text x="642" y="141" fill="#1f2328" font-size="11" font-family="-apple-system, BlinkMacSystemFont, Segoe UI, Helvetica, Arial, sans-serif">Less</text>
<rect x="672" y="133" width="11" height="11" fill="#ebedf0" rx="2" ry="2"/>
<rect x="686" y="133" width="11" height="11" fill="#9be9a8" rx="2" ry="2"/>
<rect x="700" y="133" width="11" height="11" fill="#40c463" rx="2" ry="2"/>
<rect x="714" y="133" width="11" height="11" fill="#30a14e" rx="2" ry="2"/>
<rect x="728" y="133" width="11" height="11" fill="#216e39" rx="2" ry="2"/>
<text x="747" y="141" fill="#1f2328" font-size="11" font-family="-apple-system, BlinkMacSystemFont, Segoe UI, Helvetica, Arial, sans-serif">More</text>
</svg>