<svg xmlns="http://www.w3.org/2000/svg" width="400" height="200" viewBox="0 0 400 200">
  <rect width="400" height="200" fill="#ffffff" rx="6"/>
  <rect x="0.5" y="0.5" width="399" height="199" fill="none" stroke="#e1e4e8" rx="6"/>

  <!-- Title -->
  <text x="20" y="30" font-family="system-ui, -apple-system, sans-serif" font-size="16" font-weight="600" fill="#24292f">Card Statistics</text>

  <!-- Pie Chart -->
  <path d="M 150 110 L 150.0 60.0 A 50 50 0 0 1 154.05248965113543 60.16449731739991 Z" fill="#40c463"/>
  <path d="M 150 110 L 154.05248965113543 60.16449731739991 A 50 50 0 0 1 156.0703968781394 60.36986518513299 Z" fill="#ffc107"/>
  <path d="M 150 110 L 156.0703968781394 60.36986518513299 A 50 50 0 1 1 150.0 60.0 Z" fill="#58a6ff"/>

  <!-- Legend -->
  <g transform="translate(220, 55)">
    <rect width="12" height="12" fill="#40c463" rx="2"/>
    <text x="18" y="10" font-family="system-ui, -apple-system, sans-serif" font-size="12" fill="#24292f">Mature: 32</text>

    <rect y="20" width="12" height="12" fill="#ffc107" rx="2"/>
    <text x="18" y="30" font-family="system-ui, -apple-system, sans-serif" font-size="12" fill="#24292f">Learning: 16</text>

    <rect y="40" width="12" height="12" fill="#58a6ff" rx="2"/>
    <text x="18" y="50" font-family="system-ui, -apple-system, sans-serif" font-size="12" fill="#24292f">New: 2,430</text>

    <rect y="60" width="12" height="12" fill="#6e7681" rx="2"/>
    <text x="18" y="70" font-family="system-ui, -apple-system, sans-serif" font-size="12" fill="#57606a">Suspended: 0</text>
  </g>

  <!-- Stats Row -->
  <g transform="translate(20, 175)">
    <text font-family="system-ui, -apple-system, sans-serif" font-size="11" fill="#57606a">
      Total: 2,478 | Streak: 0 days | Weekly: 0 reviews
    </text>
  </g>
</svg>